<?xml version="1.0" encoding="UTF-8" standalone="no"?>
<svg
   xmlns:dc="http://purl.org/dc/elements/1.1/"
   xmlns:cc="http://creativecommons.org/ns#"
   xmlns:rdf="http://www.w3.org/1999/02/22-rdf-syntax-ns#"
   xmlns:svg="http://www.w3.org/2000/svg"
   xmlns="http://www.w3.org/2000/svg"
   xmlns:xlink="http://www.w3.org/1999/xlink"
   xmlns:sodipodi="http://sodipodi.sourceforge.net/DTD/sodipodi-0.dtd"
   xmlns:inkscape="http://www.inkscape.org/namespaces/inkscape"
   width="210mm"
   height="297mm"
   viewBox="0 0 210 297"
   version="1.1"
   id="svg8"
   sodipodi:docname="uw-octo-.svg"
   inkscape:version="1.0.2 (e86c8708, 2021-01-15)">
  <defs
     id="defs2" />
  <sodipodi:namedview
     id="base"
     pagecolor="#ffffff"
     bordercolor="#666666"
     borderopacity="1.0"
     inkscape:pageopacity="0.0"
     inkscape:pageshadow="2"
     inkscape:zoom="0.35"
     inkscape:cx="-2.8571429"
     inkscape:cy="560"
     inkscape:document-units="mm"
     inkscape:current-layer="layer1"
     inkscape:document-rotation="0"
     showgrid="false"
     inkscape:window-width="2560"
     inkscape:window-height="1080"
     inkscape:window-x="1440"
     inkscape:window-y="0"
     inkscape:window-maximized="0" />
  <metadata
     id="metadata5">
    <rdf:RDF>
      <cc:Work
         rdf:about="">
        <dc:format>image/svg+xml</dc:format>
        <dc:type
           rdf:resource="http://purl.org/dc/dcmitype/StillImage" />
        <dc:title></dc:title>
      </cc:Work>
    </rdf:RDF>
  </metadata>
  <g
     inkscape:label="Layer 1"
     inkscape:groupmode="layer"
     id="layer1">
    <image
       sodipodi:absref="/Users/thomasthorogood/octo-icon/image56.png"
       xlink:href="../octo-icon/image56.png"
       y="84.969055"
       x="336.7012"
       id="image56"
       style="image-rendering:optimizeQuality"
       preserveAspectRatio="none"
       height="135.46666"
       width="135.46666" />
    <g
       id="g3874"
       transform="translate(-298.60119,-4.5357143)">
      <path
         style="fill:#3b96d1;stroke-width:0.264583"
         d="m 348.87032,124.42521 -0.66317,-0.2176 -0.80812,-0.41789 -0.80812,-0.4179 -0.8761,-0.87898 -0.8761,-0.879 -0.49107,-1.05833 -0.49107,-1.05833 -0.006,-1.8347 -0.006,-1.83469 0.54233,-1.12031 0.54233,-1.1203 1.15234,-1.06218 1.15233,-1.06219 1.39606,-0.41459 1.39607,-0.41458 h 0.69771 0.6977 l 1.38671,0.4118 1.3867,0.41181 1.08409,0.97726 1.08408,0.97725 0.61736,1.32292 0.61735,1.32292 0.003,1.42451 0.003,1.42451 -0.31116,1.03854 -0.31115,1.03854 -1.04399,1.18603 -1.04398,1.18603 -1.08447,0.55326 -1.08448,0.55325 -1.59528,0.0903 -1.59528,0.0903 -0.66317,-0.21759 z m 107.42083,0 -0.66317,-0.2176 -0.81193,-0.41986 -0.81191,-0.41986 -0.99802,-1.10468 -0.99801,-1.10468 -0.37117,-0.88832 -0.37116,-0.88833 v -1.49915 -1.49916 l 0.32517,-1.08903 0.32518,-1.08903 1.32847,-1.36415 1.32847,-1.36414 1.43708,-0.42179 1.43709,-0.42179 h 0.6977 0.69771 l 1.39607,0.41458 1.39606,0.41459 1.15233,1.06219 1.15234,1.06218 0.54233,1.1203 0.54233,1.12031 -0.006,1.83469 -0.006,1.8347 -0.49107,1.05833 -0.49107,1.05833 -0.87819,0.88113 -0.87818,0.88112 -1.06455,0.54309 -1.06455,0.54309 -1.59528,0.0903 -1.59528,0.0903 -0.66317,-0.21759 z m -106.7037,-21.09304 -0.7398,-0.40112 -0.25239,-0.66385 -0.25239,-0.66384 v -0.5323 -0.53229 l 0.77339,-0.773402 0.7734,-0.773397 h 0.83446 0.83445 l 0.7734,0.773397 0.7734,0.773402 v 0.56265 0.56266 l -0.37704,0.7291 -0.37703,0.7291 -0.69375,0.3161 -0.69375,0.31609 -0.31828,-0.0106 -0.31828,-0.0106 z m 13.73739,0.0336 -1.02533,-0.36548 -0.86566,-0.83903 -0.86566,-0.83902 -0.32621,-1.16514 -0.32622,-1.165129 0.32958,-1.177137 0.32958,-1.177137 0.90892,-0.90892 0.90892,-0.908921 1.1331,-0.317248 1.1331,-0.317249 1.15892,0.312066 1.15893,0.312066 0.97635,0.976353 0.97635,0.976352 0.27971,1.048742 0.2797,1.048741 -0.2129,0.932267 -0.2129,0.932264 -0.3,0.56055 -0.29999,0.56055 -0.80793,0.67983 -0.80793,0.67983 -0.98397,0.27327 -0.98398,0.27328 -0.26458,-0.0101 -0.26458,-0.0101 -1.02532,-0.36547 z m 79.34198,-1.1e-4 -1.05833,-0.38285 -0.84398,-0.91583 -0.84397,-0.91582 -0.2907,-1.0796 -0.29071,-1.079589 0.30021,-1.114887 0.30021,-1.114888 0.97635,-0.976352 0.97635,-0.976353 1.15893,-0.312066 1.15892,-0.312066 1.1331,0.317249 1.1331,0.317248 0.90892,0.908921 0.90892,0.90892 0.3332,1.190068 0.3332,1.190068 -0.30964,1.033477 -0.30964,1.03348 -0.68592,0.81518 -0.68593,0.81517 -0.70523,0.36469 -0.70523,0.36469 -0.9169,0.152 -0.9169,0.15199 z m 14.44891,0.0196 -0.63233,-0.35047 -0.35048,-0.63234 -0.35047,-0.63233 -0.009,-0.61567 -0.009,-0.61566 0.7734,-0.773402 0.7734,-0.773397 h 0.83445 0.83446 l 0.7734,0.773397 0.77339,0.773402 v 0.53229 0.5323 l -0.25321,0.66601 -0.25322,0.66601 -0.79198,0.40954 -0.79197,0.40955 -0.34387,-0.009 -0.34387,-0.009 -0.63234,-0.35048 z"
         id="path3880" />
      <path
         style="fill:#9156a2;stroke-width:0.264583"
         d="m 354.65869,220.15128 -2.01856,-0.21404 -2.44549,-0.57414 -2.4455,-0.57413 -2.38861,-1.19574 -2.38861,-1.19574 -1.61401,-1.61895 -1.614,-1.61895 -0.84511,-1.59675 -0.84511,-1.59675 -0.60373,-2.10737 -0.60372,-2.10738 -0.003,-4.10104 -0.003,-4.10104 0.47681,-1.71979 0.47681,-1.7198 0.94446,-1.92738 0.94446,-1.92737 0.66109,-0.52002 0.6611,-0.52002 h 0.74331 0.74331 l 0.70583,0.60713 0.70582,0.60712 0.0365,3.95694 0.0365,3.95694 0.83468,1.76176 0.83468,1.76176 1.05754,1.0263 1.05753,1.0263 1.28278,0.69549 1.28279,0.6955 1.71979,0.46713 1.71979,0.46713 3.3073,0.0181 3.30729,0.0181 1.93473,-0.63379 1.93473,-0.6338 1.73045,-1.11339 1.73046,-1.1134 1.96974,-1.95135 1.96975,-1.95135 1.54078,-2.25458 1.54078,-2.25459 1.27791,-2.51354 1.27791,-2.51354 0.97836,-2.51354 0.97836,-2.51354 -0.0765,-0.0813 -0.0765,-0.0813 -2.87322,0.42731 -2.87321,0.42731 -3.67163,0.21202 -3.67164,0.21201 -3.20753,-0.21408 -3.20753,-0.21407 -2.1458,-0.41328 -2.1458,-0.41327 -1.92187,-0.65368 -1.92188,-0.65367 -1.95232,-0.97795 -1.95232,-0.97795 -2.05592,-1.62569 -2.05591,-1.62569 -1.36902,-1.72047 -1.36903,-1.72048 -1.04891,-1.96435 -1.04892,-1.96435 -0.66156,-2.12293 -0.66157,-2.12292 -0.324,-2.21586 -0.324,-2.21586 0.15975,-2.07166 0.15976,-2.07166 0.42486,-1.65935 0.42486,-1.65935 0.88862,-1.85208 0.88863,-1.85208 1.11914,-1.15865 1.11913,-1.15864 1.44617,-0.66208 1.44617,-0.66207 2.30072,0.13118 2.30072,0.13118 1.64945,0.74023 1.64945,0.74023 0.38184,0.54516 0.38185,0.54516 v 0.88595 0.88594 l -1.70701,1.64112 -1.707,1.64111 -0.68429,1.49469 -0.6843,1.49469 -0.155,1.30873 -0.155,1.30874 0.43853,1.32029 0.43853,1.32029 0.89703,1.04798 0.89704,1.04798 1.54146,0.81905 1.54147,0.81906 1.71979,0.4765 1.71979,0.47651 4.63021,0.009 4.63021,0.009 2.10737,-0.6101 2.10738,-0.6101 1.59679,-0.8451 1.59679,-0.84509 1.7225,-1.7198 1.7225,-1.71979 0.99572,-1.90264 0.99572,-1.90265 0.40025,-1.13445 0.40026,-1.13445 -0.56445,-1.50932 -0.56444,-1.50932 -0.86457,-1.00983 -0.86457,-1.00984 -2.33052,-1.16532 -2.33052,-1.16533 -1.63251,-1.63252 -1.63252,-1.63251 -0.96757,-1.93406 -0.96757,-1.93406 v -0.41313 -0.41312 l 0.7509,1.17627 0.7509,1.17628 1.18881,1.08876 1.18881,1.08876 1.56602,0.59027 1.56602,0.59027 2.24895,-0.1108 2.24896,-0.1108 1.3981,-0.71737 1.3981,-0.71737 1.07629,-1.07629 1.0763,-1.0763 0.70061,-1.49435 0.7006,-1.49436 -0.003,-2.51354 -0.003,-2.51354 -0.56272,-1.22301 -0.56272,-1.22301 -1.02052,-1.1296 -1.02053,-1.12961 -0.96221,-0.60741 -0.96221,-0.60742 -1.5337,-0.44586 -1.53369,-0.44585 -1.68696,0.13541 -1.68696,0.13541 -1.63944,0.80758 -1.63944,0.80758 -0.84718,0.87539 -0.84718,0.8754 -0.82243,1.45521 -0.82242,1.4552 0.18198,-0.66145 0.18199,-0.66146 0.49355,-1.32292 0.49354,-1.32292 1.04974,-1.32291 1.04973,-1.32292 0.68813,-1.1092 0.68813,-1.10919 0.2321,-1.66893 0.2321,-1.66893 0.2791,-3.22849 0.2791,-3.2285 0.67667,-3.20491 0.67668,-3.2049 0.78387,-2.39876 0.78388,-2.39875 1.02619,-2.18983 1.02619,-2.189831 1.20849,-1.868131 1.20849,-1.868131 2.0474,-2.142989 2.0474,-2.14299 2.19711,-1.461908 2.19711,-1.461909 2.0678,-0.872086 2.0678,-0.872087 2.23122,-0.551808 2.23122,-0.551807 2.51354,-0.303925 2.51354,-0.303924 3.43958,0.161042 3.43959,0.161042 2.38125,0.506268 2.38125,0.506269 2.28009,0.832983 2.2801,0.832983 2.21782,1.354468 2.21782,1.354468 2.41352,2.403489 2.41352,2.40349 1.25308,1.942597 1.25309,1.942596 1.02618,2.189831 1.02619,2.18983 0.78388,2.39875 0.78388,2.39876 0.67667,3.2049 0.67668,3.20491 0.2791,3.2285 0.2791,3.22849 0.2321,1.66893 0.2321,1.66893 0.68813,1.10919 0.68813,1.1092 1.04973,1.32292 1.04973,1.32291 0.49355,1.32292 0.49355,1.32292 0.18198,0.66146 0.18199,0.66145 -0.82243,-1.4552 -0.82242,-1.45521 -0.84718,-0.8754 -0.84718,-0.87539 -1.71423,-0.8444 -1.71423,-0.8444 h -2.25452 -2.25452 l -1.50155,0.7039 -1.50155,0.7039 -1.20502,1.11075 -1.20501,1.11074 -0.73302,1.49265 -0.73303,1.49265 v 2.51354 2.51354 l 0.7006,1.49436 0.70061,1.49435 1.0763,1.0763 1.07629,1.07629 1.3981,0.71737 1.3981,0.71737 2.24896,0.1108 2.24895,0.1108 1.56602,-0.59027 1.56602,-0.59027 1.18881,-1.08876 1.18881,-1.08876 0.7509,-1.17628 0.7509,-1.17627 v 0.41312 0.41313 l -0.96757,1.93406 -0.96757,1.93406 -1.63252,1.63251 -1.63251,1.63252 -2.33052,1.16533 -2.33052,1.16532 -0.85678,1.00074 -0.85678,1.00073 -0.54645,1.42797 -0.54645,1.42796 0.27669,1.01088 0.27669,1.01089 0.75004,1.51739 0.75004,1.51739 0.80566,1.17098 0.80566,1.17099 1.39259,1.22657 1.39259,1.22657 1.85209,0.911 1.85208,0.911 1.71979,0.46572 1.71979,0.46572 4.63021,-0.009 4.63021,-0.009 1.71979,-0.4765 1.71979,-0.4765 1.54147,-0.81906 1.54147,-0.81906 0.89703,-1.04798 0.89703,-1.04798 0.43853,-1.32028 0.43853,-1.32029 -0.16014,-1.35213 -0.16014,-1.35212 -0.81201,-1.64943 -0.81201,-1.64942 -1.57415,-1.36915 -1.57415,-1.36916 v -0.95978 -0.95978 l 0.38185,-0.54516 0.38184,-0.54517 1.64945,-0.74022 1.64945,-0.74023 2.30072,-0.13118 2.30072,-0.13119 1.44617,0.66208 1.44617,0.66208 1.11913,1.15864 1.11914,1.15865 0.88095,1.85208 0.88094,1.85208 0.4477,1.83192 0.4477,1.83192 0.14396,1.90345 0.14395,1.90345 -0.32336,2.2115 -0.32336,2.21149 -0.66157,2.12293 -0.66156,2.12292 -1.04892,1.96436 -1.04891,1.96435 -1.35372,1.70124 -1.35371,1.70124 -1.54117,1.28257 -1.54116,1.28257 -1.80276,1.071 -1.80277,1.071 -2.23374,0.81772 -2.23375,0.81771 -2.30356,0.50507 -2.30355,0.50507 -3.41143,0.24189 -3.41142,0.24188 -3.71473,-0.23254 -3.71472,-0.23253 -2.83622,-0.42114 -2.83622,-0.42114 -0.0765,0.0813 -0.0765,0.0813 1.01998,2.62505 1.01999,2.62505 1.18509,2.31861 1.1851,2.3186 1.19464,1.81336 1.19464,1.81335 1.33061,1.52056 1.33061,1.52056 1.26207,1.09519 1.26207,1.09518 1.50082,0.97236 1.50083,0.97236 1.93876,0.6351 1.93875,0.63509 3.43959,-0.034 3.43958,-0.034 1.7761,-0.52308 1.7761,-0.52309 1.49117,-0.89815 1.49117,-0.89815 0.77186,-0.96946 0.77186,-0.96946 0.72337,-1.54408 0.72337,-1.54408 0.0365,-3.95694 0.0365,-3.95694 0.70582,-0.60712 0.70583,-0.60713 h 0.74331 0.74331 l 0.6611,0.52002 0.66109,0.52001 0.94446,1.92738 0.94446,1.92738 0.47826,1.71979 0.47827,1.7198 -0.009,4.10104 -0.009,4.10104 -0.59831,2.10738 -0.59832,2.10737 -0.8451,1.59675 -0.84511,1.59675 -1.5875,1.59082 -1.5875,1.59082 -2.18974,1.1382 -2.18973,1.13819 -2.49867,0.63384 -2.49866,0.63384 -2.68182,0.27521 -2.68182,0.2752 h -2.05398 -2.05397 l -2.21747,-0.3889 -2.21747,-0.38891 -2.31829,-0.78602 -2.3183,-0.78602 -2.5765,-1.35062 -2.57649,-1.35062 -2.51355,-1.77393 -2.51354,-1.77393 -3.4613,-3.43959 -3.46131,-3.43958 -1.98825,-2.64583 -1.98825,-2.64584 -1.18296,-1.85208 -1.18296,-1.85208 -1.53308,-2.7383 -1.53309,-2.73828 -1.56622,-3.4713 -1.56623,-3.47129 -0.58692,-0.62858 -0.58693,-0.62857 -0.7571,-0.39379 -0.7571,-0.39378 h -1.14082 -1.14083 l -0.91422,0.43383 -0.91424,0.43383 -0.54387,0.5804 -0.54388,0.58041 -0.95916,2.24298 -0.95917,2.24297 -1.76555,3.43031 -1.76556,3.43031 -2.26996,3.45484 -2.26996,3.45484 -1.99244,2.38125 -1.99245,2.38125 -2.89244,2.77812 -2.89245,2.77813 -2.47216,1.71979 -2.47216,1.71979 -0.36568,0.34963 -0.36567,0.34963 v -0.15414 -0.15415 l -2.05052,1.03071 -2.05052,1.03071 -2.34919,0.82892 -2.34919,0.82891 -2.24953,0.39229 -2.24955,0.39226 -2.54503,-0.0352 -2.54503,-0.0352 z m 30.39511,0.0977 0.59531,-0.11466 0.59532,0.11466 0.59531,0.11466 h -1.19063 -1.19062 z m 4.36563,0.004 0.46302,-0.121 0.46302,0.121 0.46302,0.121 h -0.92604 -0.92604 z m 28.70729,0.007 0.33073,-0.13345 0.33073,0.13345 0.33072,0.13346 h -0.66145 -0.66146 z m 5.16441,-0.008 0.46805,-0.12197 0.3257,0.13177 0.32569,0.13178 -0.79375,-0.01 -0.79375,-0.01 0.46806,-0.12197 z m -40.33746,-0.26197 0.34727,-0.13896 0.15985,0.15985 0.15985,0.15985 -0.50712,-0.0209 -0.50711,-0.0209 0.34726,-0.13896 z m 8.86905,0.004 0.17639,-0.17639 0.17639,0.17639 0.17639,0.17641 h -0.35278 -0.35277 l 0.17638,-0.17639 z m 24.60625,0 0.17639,-0.17639 0.17639,0.17639 0.17639,0.17641 h -0.35278 -0.35277 l 0.17638,-0.17639 z m 9.26042,0 0.17639,-0.17639 0.17639,0.17639 0.17639,0.17641 h -0.35278 -0.35278 l 0.17639,-0.17639 z m -44.18542,-0.26458 0.17639,-0.17639 0.17639,0.17639 0.17639,0.17641 h -0.35278 -0.35277 l 0.17638,-0.17639 z m 33.86667,0 0.17639,-0.17639 0.17639,0.17639 0.17639,0.17641 h -0.35278 -0.35278 l 0.17639,-0.17639 z m 11.64167,0 0.17639,-0.17639 0.17639,0.17639 0.17638,0.17641 h -0.35277 -0.35278 l 0.17639,-0.17639 z m -46.56667,-0.26459 0.17639,-0.17638 0.17639,0.17638 0.17639,0.17642 h -0.35278 -0.35278 l 0.17639,-0.17639 z m 13.49375,0 0.17639,-0.17638 0.17639,0.17638 0.17639,0.17642 h -0.35278 -0.35278 l 0.17639,-0.17639 z m 34.13125,0 0.17639,-0.17638 0.17639,0.17638 0.17639,0.17642 h -0.35278 -0.35278 l 0.17639,-0.17639 z m -48.41875,-0.26458 0.17639,-0.17639 0.17639,0.17639 0.17639,0.17641 h -0.35278 -0.35278 l 0.17639,-0.17639 z m 15.61042,-0.26458 0.17639,-0.17639 0.17639,0.17639 0.17638,0.17641 h -0.35277 -0.35278 l 0.17639,-0.17639 z m 1.36701,-0.61734 0.16352,-0.26458 h 0.13229 0.1323 l -0.16352,0.26458 -0.16353,0.26458 h -0.13229 -0.13229 z m -19.86901,-0.57005 -0.18879,-0.30546 0.30546,0.18879 0.30547,0.18878 v 0.11668 0.11668 h -0.11668 -0.11668 z m 21.7211,-0.75287 0.47889,-0.52916 h 0.13229 0.13229 l -0.47889,0.52916 -0.47889,0.52917 h -0.13229 -0.1323 z m 11.88098,0.2237 -0.18879,-0.30546 0.30547,0.18879 0.30546,0.18878 v 0.11668 0.11668 h -0.11668 -0.11667 z m -10.29348,-1.8112 0.47889,-0.52916 h 0.13229 0.13229 l -0.47889,0.52916 -0.47889,0.52917 h -0.13229 -0.1323 z m 8.17681,-0.30546 -0.18879,-0.30547 0.30547,0.18879 0.30546,0.18879 v 0.11668 0.11667 h -0.11667 -0.11668 z m -0.79375,-1.05834 -0.18879,-0.30546 0.30547,0.18879 0.30546,0.18878 v 0.11668 0.11668 h -0.11667 -0.11668 z m -4.86952,-2.86953 v -0.35278 l 0.17639,0.17639 0.17638,0.17639 -0.17638,0.17639 -0.17639,0.17639 z m 3.175,-0.52917 v -0.35277 l 0.17639,0.17638 0.17638,0.17639 -0.17638,0.17639 -0.17639,0.17639 z m -0.26459,-0.79375 v -0.35277 l 0.17639,0.17638 0.17639,0.17639 -0.17639,0.17639 -0.17639,0.17639 z m -2.11666,-1.05833 v -0.35278 l 0.17639,0.17639 0.17638,0.17639 -0.17638,0.17639 -0.17639,0.17639 z m 0.26458,-1.05833 v -0.35278 l 0.17639,0.17639 0.17639,0.17639 -0.17639,0.17639 -0.17639,0.17638 z m 1.07922,-1.21268 0.0209,-0.50712 0.13896,0.34727 0.13897,0.34727 -0.15985,0.15985 -0.15986,0.15985 0.0209,-0.50712 z m -0.79375,-0.26458 0.0209,-0.50712 0.13896,0.34727 0.13897,0.34726 -0.15985,0.15986 -0.15986,0.15985 0.0209,-0.50712 z m 0.44213,-1.32123 -0.19843,-0.20012 0.0239,-1.08039 0.0239,-1.08038 0.25507,0.8861 0.25508,0.8861 -0.0805,0.3944 -0.0805,0.39441 -0.19844,-0.20012 z m -26.44179,-64.05725 0.34726,-0.13897 0.15986,0.15986 0.15985,0.15985 -0.50712,-0.0209 -0.50712,-0.0209 0.34727,-0.13897 z m 1.32292,0 0.34726,-0.13897 0.15985,0.15986 0.15985,0.15985 -0.50711,-0.0209 -0.50712,-0.0209 0.34727,-0.13897 z m 50.00624,0 0.34727,-0.13897 0.15985,0.15986 0.15985,0.15985 -0.50711,-0.0209 -0.50712,-0.0209 0.34726,-0.13897 z m 1.32292,0 0.34726,-0.13897 0.15986,0.15986 0.15985,0.15985 -0.50712,-0.0209 -0.50712,-0.0209 0.34727,-0.13897 z m -55.26833,-1.34062 -0.64143,-0.7276 0.7276,0.64143 0.7276,0.64144 v 0.0862 0.0862 h -0.0862 -0.0862 z m 57.96377,0.0662 0.62141,-0.66146 h 0.13229 0.13229 l -0.6214,0.66146 -0.62141,0.66146 h -0.13229 -0.1323 z m -51.59375,0.29698 v -0.0999 l 0.46303,-0.36313 0.46302,-0.36313 -0.36313,0.46302 -0.36313,0.46303 h -0.0999 -0.0999 z m 44.94542,-0.36313 -0.36313,-0.46302 0.46302,0.36313 0.46303,0.36313 v 0.0999 0.0999 h -0.0999 -0.0999 z m -59.23291,-0.0661 v -0.35278 l 0.17638,0.17639 0.17639,0.17639 -0.17639,0.17639 -0.17638,0.17639 z m 73.81874,0 v -0.35278 l 0.17639,0.17639 0.17639,0.17639 -0.17639,0.17639 -0.17639,0.17639 z m -58.20833,-1.5875 v -0.35278 l 0.17639,0.17639 0.17639,0.17639 -0.17639,0.17639 -0.17639,0.17639 z m 42.59792,0 v -0.35278 l 0.17639,0.17639 0.17638,0.17639 -0.17638,0.17639 -0.17639,0.17639 z m -51.55198,-1.05833 v -0.66146 l 0.13346,0.33073 0.13345,0.33073 -0.13345,0.33072 -0.13346,0.33073 z m 60.58958,0 v -0.66146 l 0.13346,0.33073 0.13345,0.33073 -0.13345,0.33072 -0.13346,0.33073 z m -51.31936,-0.39688 0.01,-0.79375 0.12197,0.46806 0.12198,0.46805 -0.13178,0.3257 -0.13177,0.32569 0.01,-0.79375 z m 42.06875,0 0.01,-0.79375 0.12197,0.46806 0.12197,0.46805 -0.13177,0.3257 -0.13178,0.32569 0.01,-0.79375 z m -50.05783,-0.49677 v -0.0999 l 0.46303,-0.36313 0.46302,-0.36313 -0.36313,0.46303 -0.36313,0.46302 h -0.0999 -0.0999 z m 57.64542,-0.36312 -0.36313,-0.46303 0.46302,0.36313 0.46303,0.36313 v 0.0999 0.0999 h -0.0999 -0.0999 z m -56.98396,-2.97657 0.16352,-0.26458 h 0.1323 0.13229 l -0.16352,0.26458 -0.16352,0.26459 h -0.1323 -0.13229 z m 56.59557,-0.0409 -0.18879,-0.30546 0.30546,0.18879 0.30547,0.18878 v 0.11668 0.11668 h -0.11668 -0.11668 z m -54.14817,-0.9281 0.33073,-0.13345 0.33073,0.13345 0.33073,0.13346 h -0.66146 -0.66146 z m 51.32916,0 0.33073,-0.13345 0.33073,0.13345 0.33073,0.13346 h -0.66146 -0.66146 z"
         id="path3878" />
      <path
         style="fill:#4a415f;stroke-width:0.264583"
         d="m 384.65074,220.16337 -2.189,-0.22287 -1.50387,-0.43718 -1.50386,-0.43719 -1.23036,-0.62347 -1.23035,-0.62347 -0.83147,-0.69963 -0.83147,-0.69964 v -0.3163 -0.31631 l 0.78029,-0.46093 0.78029,-0.46093 2.19628,-1.6199 2.19627,-1.61989 2.6142,-2.54029 2.61421,-2.54028 1.99966,-2.38125 1.99967,-2.38125 2.26996,-3.45484 2.26996,-3.45483 1.76556,-3.43031 1.76555,-3.43031 0.95917,-2.24298 0.95916,-2.24298 0.54388,-0.5804 0.54388,-0.58041 0.91423,-0.43383 0.91422,-0.43383 h 1.14083 1.14082 l 0.7571,0.39378 0.7571,0.39379 0.58693,0.62857 0.58693,0.62858 1.56622,3.47129 1.56622,3.4713 1.53309,2.73829 1.53309,2.73829 1.18296,1.85208 1.18296,1.85208 1.96553,2.59559 1.96553,2.59558 2.54375,2.65023 2.54375,2.65022 1.9986,1.60849 1.99861,1.60848 1.85208,1.2067 1.85209,1.2067 0.1142,0.0789 0.11421,0.0789 -0.87375,0.90148 -0.87375,0.90148 -1.6217,0.78926 -1.62171,0.78927 -2.11667,0.47385 -2.11667,0.47384 -3.57187,-0.002 -3.57188,-0.002 -1.70392,-0.46742 -1.70392,-0.46741 -1.0742,-0.53868 -1.07421,-0.53868 -1.37333,-1.02525 -1.37334,-1.02525 -1.21987,-1.70949 -1.21987,-1.70949 -0.76795,-2.10425 -0.76796,-2.10425 -0.26459,-1.67966 -0.26459,-1.67967 -0.19398,-1.32291 -0.19398,-1.32292 -0.19311,2.12569 -0.19313,2.1257 -0.43633,1.71076 -0.43634,1.71077 -1.01671,2.11666 -1.0167,2.11667 -1.62355,1.62315 -1.62356,1.62316 -1.65093,0.81275 -1.65094,0.81276 -1.44608,0.37582 -1.44607,0.37582 -2.38125,0.1401 -2.38125,0.14009 -2.189,-0.22287 z m -6.90663,-79.37826 -0.89355,-0.20049 -0.69395,-0.51388 -0.69395,-0.51389 -0.59532,-0.87469 -0.59531,-0.8747 v -0.72594 -0.72593 l 0.65811,-0.16518 0.65811,-0.16517 0.43432,-0.66285 0.43431,-0.66284 -0.14199,-1.05857 -0.14198,-1.05857 0.75621,-0.39105 0.75622,-0.39106 1.13761,0.004 1.13762,0.004 1.05294,0.59635 1.05295,0.59635 0.59635,1.05294 0.59635,1.05294 0.004,1.10726 0.004,1.10725 -0.2822,0.74483 -0.28221,0.74483 -0.57769,0.62045 -0.57769,0.62045 -0.66146,0.33395 -0.66145,0.33395 -0.79375,0.13252 -0.79375,0.13253 z m 51.32916,0 -0.89355,-0.20049 -0.6776,-0.5059 -0.6776,-0.50591 -0.52838,-0.7077 -0.52837,-0.7077 -0.0942,-1.52491 -0.0942,-1.52491 0.61165,-1.05294 0.61164,-1.05294 1.05295,-0.59635 1.05294,-0.59635 1.13762,-0.004 1.13761,-0.004 0.75622,0.39106 0.75621,0.39105 -0.14198,1.05857 -0.14199,1.05857 0.43431,0.66284 0.43432,0.66285 0.65811,0.16517 0.65811,0.16518 v 0.65016 0.65017 l -0.29765,0.57792 -0.29765,0.57792 -0.56224,0.62045 -0.56225,0.62045 -0.66146,0.33395 -0.66146,0.33395 -0.79375,0.13252 -0.79375,0.13253 z"
         id="path3876" />
    </g>
  </g>
</svg>
